<svg width="200" height="200" viewBox="0 0 200 200" fill="none" xmlns="http://www.w3.org/2000/svg">
<circle cx="100" cy="100" r="100" fill="url(#paint0_linear_1139_138)"/>
<path fill-rule="evenodd" clip-rule="evenodd" d="M139.764 103.683C139.764 105.625 139.394 107.443 138.654 109.138C137.949 110.834 136.962 112.317 135.694 113.588C134.425 114.859 132.945 115.866 131.254 116.607C129.562 117.314 127.747 117.667 125.809 117.667C123.871 117.667 122.056 117.314 120.365 116.607C118.674 115.866 117.194 114.859 115.925 113.588C114.656 112.317 113.652 110.834 112.912 109.138C112.207 107.443 111.855 105.625 111.855 103.683C111.855 101.74 112.207 99.9217 112.912 98.2266C113.652 96.5316 114.656 95.0484 115.925 93.7771C117.194 92.5059 118.674 91.5171 120.365 90.8108C122.056 90.0692 123.871 89.6985 125.809 89.6985C127.43 89.6985 128.946 89.9633 130.355 90.493C131.8 90.9874 133.121 91.6937 134.319 92.6118V71H139.764V103.683ZM125.809 112.211C126.972 112.211 128.065 111.999 129.086 111.575C130.144 111.116 131.06 110.498 131.835 109.721C132.61 108.944 133.209 108.044 133.632 107.02C134.09 105.96 134.319 104.848 134.319 103.683V103.63C134.319 102.464 134.09 101.37 133.632 100.345C133.209 99.3214 132.61 98.4209 131.835 97.644C131.06 96.8671 130.144 96.2667 129.086 95.843C128.065 95.3839 126.972 95.1544 125.809 95.1544C124.646 95.1544 123.536 95.3839 122.479 95.843C121.457 96.2667 120.559 96.8671 119.784 97.644C119.008 98.4209 118.392 99.339 117.934 100.398C117.475 101.422 117.246 102.517 117.246 103.683C117.246 104.848 117.475 105.96 117.934 107.02C118.392 108.044 119.008 108.944 119.784 109.721C120.559 110.498 121.457 111.116 122.479 111.575C123.536 111.999 124.646 112.211 125.809 112.211Z" fill="white"/>
<path d="M61.846 91.5524C63.5022 92.6471 64.8236 94.095 65.8103 95.896C66.797 97.6616 67.2903 99.6039 67.2903 101.723V117.667H61.846V101.723C61.846 100.805 61.6698 99.9393 61.3174 99.1271C60.965 98.3149 60.4717 97.6087 59.8374 97.0083C59.2383 96.3727 58.5336 95.8783 57.7231 95.5252C56.9126 95.172 56.0493 94.9955 55.1331 94.9955C54.2169 94.9955 53.3359 95.172 52.4902 95.5252C51.6797 95.8783 50.9573 96.3727 50.323 97.0083C49.724 97.6087 49.2483 98.3149 48.8959 99.1271C48.5435 99.9393 48.3673 100.805 48.3673 101.723V117.667H42.923V101.723C42.923 100.805 42.7468 99.9393 42.3944 99.1271C42.042 98.3149 41.5487 97.6087 40.9144 97.0083C40.3153 96.3727 39.6106 95.8783 38.8001 95.5252C37.9896 95.172 37.1263 94.9955 36.2101 94.9955C35.2939 94.9955 34.4129 95.172 33.5672 95.5252C32.7567 95.8783 32.0343 96.3727 31.4001 97.0083C30.801 97.6087 30.3253 98.3149 29.9729 99.1271C29.6205 99.9393 29.4443 100.805 29.4443 101.723V117.667H24V89.5395H29.4443V91.5524C30.431 90.9168 31.4881 90.4224 32.6158 90.0692C33.7786 89.7161 34.9767 89.5395 36.2101 89.5395C37.4434 89.5395 38.6239 89.7161 39.7515 90.0692C40.9144 90.4224 41.9715 90.9168 42.923 91.5524C43.9449 92.2234 44.8611 93.0709 45.6716 94.095C46.4468 93.1062 47.3454 92.2587 48.3673 91.5524C49.354 90.9168 50.4111 90.4224 51.5388 90.0692C52.7016 89.7161 53.8997 89.5395 55.1331 89.5395C56.3664 89.5395 57.5469 89.7161 58.6745 90.0692C59.8374 90.4224 60.8945 90.9168 61.846 91.5524Z" fill="white"/>
<path d="M95.0173 90.7579C93.3259 90.0163 91.5111 89.6455 89.573 89.6455C87.6349 89.6455 85.8201 90.0163 84.1287 90.7579C82.4373 91.4641 80.9573 92.4529 79.6887 93.7242C78.4201 94.9955 77.4158 96.4786 76.6758 98.1737C75.971 99.8687 75.6186 101.687 75.6186 103.63C75.6186 105.572 75.971 107.39 76.6758 109.086C77.1078 110.075 77.63 110.993 78.2422 111.838L99.093 93.3722C97.9079 92.269 96.5494 91.3976 95.0173 90.7579Z" fill="white"/>
<path d="M100.911 95.4441C101.507 96.283 102.01 97.1929 102.417 98.1737C103.157 99.8687 103.527 101.687 103.527 103.63C103.527 105.572 103.157 107.39 102.417 109.086C101.713 110.781 100.726 112.264 99.4574 113.535C98.1888 114.806 96.7088 115.813 95.0173 116.554C93.3259 117.261 91.5111 117.614 89.573 117.614C87.6349 117.614 85.8201 117.261 84.1287 116.554C82.6034 115.886 81.2501 115.001 80.0687 113.902L100.911 95.4441Z" fill="white"/>
<path d="M162.046 89.6455C163.984 89.6455 165.798 90.0163 167.49 90.7579C169.042 91.4058 170.415 92.2914 171.611 93.4148L150.752 111.889C150.124 111.03 149.589 110.095 149.148 109.086C148.444 107.39 148.091 105.572 148.091 103.63C148.091 101.687 148.444 99.8687 149.148 98.1737C149.888 96.4786 150.893 94.9955 152.161 93.7242C153.43 92.4529 154.91 91.4641 156.601 90.7579C158.293 90.0163 160.107 89.6455 162.046 89.6455Z" fill="white"/>
<path d="M156.601 116.554C155.096 115.894 153.758 115.025 152.588 113.945L173.42 95.4951C174 96.3198 174.49 97.2127 174.89 98.1737C175.63 99.8687 176 101.687 176 103.63C176 105.572 175.63 107.39 174.89 109.086C174.185 110.781 173.199 112.264 171.93 113.535C170.661 114.806 169.181 115.813 167.49 116.554C165.798 117.261 163.984 117.614 162.046 117.614C160.107 117.614 158.293 117.261 156.601 116.554Z" fill="white"/>
<defs>
<linearGradient id="paint0_linear_1139_138" x1="175.333" y1="100" x2="28.6667" y2="100" gradientUnits="userSpaceOnUse">
<stop stop-color="#205072"/>
<stop offset="1" stop-color="#329D9C"/>
</linearGradient>
</defs>
</svg>
