<svg width="450" height="450" viewBox="0 0 450 450" fill="none" xmlns="http://www.w3.org/2000/svg">
<rect width="450" height="450" fill="white"/>
<path d="M102.16 225H91.216L72.912 197.288V225H61.968V180.072H72.912L91.216 207.912V180.072H102.16V225ZM138.061 217.064H121.293L118.605 225H107.149L123.405 180.072H136.077L152.333 225H140.749L138.061 217.064ZM135.245 208.616L129.677 192.168L124.173 208.616H135.245ZM168.225 180.072V225H157.281V180.072H168.225ZM187.1 216.552H201.436V225H176.156V180.072H187.1V216.552ZM245.184 180.072L229.632 210.152V225H218.688V210.152L203.136 180.072H215.552L224.256 198.888L232.896 180.072H245.184Z" fill="black"/>
<mask id="path-2-outside-1_258_621" maskUnits="userSpaceOnUse" x="18" y="234" width="407" height="51" fill="black">
<rect fill="white" x="18" y="234" width="407" height="51"/>
<path d="M61.16 282H50.216L31.912 254.288V282H20.968V237.072H31.912L50.216 264.912V237.072H61.16V282ZM80.037 245.84V254.928H94.693V263.376H80.037V273.232H96.613V282H69.093V237.072H96.613V245.84H80.037ZM165.542 237.072L153.83 282H140.582L133.414 252.432L125.99 282H112.742L101.35 237.072H113.062L119.526 269.776L127.526 237.072H139.558L147.238 269.776L153.766 237.072H165.542ZM187.287 282.448C184.001 282.448 181.057 281.915 178.455 280.848C175.852 279.781 173.761 278.203 172.183 276.112C170.647 274.021 169.836 271.504 169.751 268.56H181.399C181.569 270.224 182.145 271.504 183.127 272.4C184.108 273.253 185.388 273.68 186.967 273.68C188.588 273.68 189.868 273.317 190.807 272.592C191.745 271.824 192.215 270.779 192.215 269.456C192.215 268.347 191.831 267.429 191.063 266.704C190.337 265.979 189.42 265.381 188.311 264.912C187.244 264.443 185.708 263.909 183.703 263.312C180.801 262.416 178.433 261.52 176.599 260.624C174.764 259.728 173.185 258.405 171.863 256.656C170.54 254.907 169.879 252.624 169.879 249.808C169.879 245.627 171.393 242.363 174.423 240.016C177.452 237.627 181.399 236.432 186.263 236.432C191.212 236.432 195.201 237.627 198.231 240.016C201.26 242.363 202.881 245.648 203.095 249.872H191.255C191.169 248.421 190.636 247.291 189.655 246.48C188.673 245.627 187.415 245.2 185.878 245.2C184.556 245.2 183.489 245.563 182.679 246.288C181.868 246.971 181.463 247.973 181.463 249.296C181.463 250.747 182.145 251.877 183.51 252.688C184.876 253.499 187.009 254.373 189.911 255.312C192.812 256.293 195.159 257.232 196.951 258.128C198.785 259.024 200.364 260.325 201.687 262.032C203.009 263.739 203.671 265.936 203.671 268.624C203.671 271.184 203.009 273.509 201.687 275.6C200.407 277.691 198.529 279.355 196.055 280.592C193.58 281.829 190.657 282.448 187.287 282.448ZM221.35 273.552H235.686V282H210.406V237.072H221.35V273.552ZM251.85 245.84V254.928H266.506V263.376H251.85V273.232H268.426V282H240.906V237.072H268.426V245.84H251.85ZM307.851 237.072V245.84H295.947V282H285.003V245.84H273.099V237.072H307.851ZM345.663 237.072V245.84H333.759V282H322.815V245.84H310.911V237.072H345.663ZM362.1 245.84V254.928H376.756V263.376H362.1V273.232H378.676V282H351.156V237.072H378.676V245.84H362.1ZM408.693 282L399.349 265.04H396.725V282H385.781V237.072H404.149C407.69 237.072 410.698 237.691 413.173 238.928C415.69 240.165 417.567 241.872 418.805 244.048C420.042 246.181 420.661 248.571 420.661 251.216C420.661 254.203 419.807 256.869 418.101 259.216C416.437 261.563 413.962 263.227 410.677 264.208L421.045 282H408.693ZM396.725 257.296H403.509C405.514 257.296 407.007 256.805 407.989 255.824C409.013 254.843 409.525 253.456 409.525 251.664C409.525 249.957 409.013 248.613 407.989 247.632C407.007 246.651 405.514 246.16 403.509 246.16H396.725V257.296Z"/>
</mask>
<path d="M61.16 282H50.216L31.912 254.288V282H20.968V237.072H31.912L50.216 264.912V237.072H61.16V282ZM80.037 245.84V254.928H94.693V263.376H80.037V273.232H96.613V282H69.093V237.072H96.613V245.84H80.037ZM165.542 237.072L153.83 282H140.582L133.414 252.432L125.99 282H112.742L101.35 237.072H113.062L119.526 269.776L127.526 237.072H139.558L147.238 269.776L153.766 237.072H165.542ZM187.287 282.448C184.001 282.448 181.057 281.915 178.455 280.848C175.852 279.781 173.761 278.203 172.183 276.112C170.647 274.021 169.836 271.504 169.751 268.56H181.399C181.569 270.224 182.145 271.504 183.127 272.4C184.108 273.253 185.388 273.68 186.967 273.68C188.588 273.68 189.868 273.317 190.807 272.592C191.745 271.824 192.215 270.779 192.215 269.456C192.215 268.347 191.831 267.429 191.063 266.704C190.337 265.979 189.42 265.381 188.311 264.912C187.244 264.443 185.708 263.909 183.703 263.312C180.801 262.416 178.433 261.52 176.599 260.624C174.764 259.728 173.185 258.405 171.863 256.656C170.54 254.907 169.879 252.624 169.879 249.808C169.879 245.627 171.393 242.363 174.423 240.016C177.452 237.627 181.399 236.432 186.263 236.432C191.212 236.432 195.201 237.627 198.231 240.016C201.26 242.363 202.881 245.648 203.095 249.872H191.255C191.169 248.421 190.636 247.291 189.655 246.48C188.673 245.627 187.415 245.2 185.878 245.2C184.556 245.2 183.489 245.563 182.679 246.288C181.868 246.971 181.463 247.973 181.463 249.296C181.463 250.747 182.145 251.877 183.51 252.688C184.876 253.499 187.009 254.373 189.911 255.312C192.812 256.293 195.159 257.232 196.951 258.128C198.785 259.024 200.364 260.325 201.687 262.032C203.009 263.739 203.671 265.936 203.671 268.624C203.671 271.184 203.009 273.509 201.687 275.6C200.407 277.691 198.529 279.355 196.055 280.592C193.58 281.829 190.657 282.448 187.287 282.448ZM221.35 273.552H235.686V282H210.406V237.072H221.35V273.552ZM251.85 245.84V254.928H266.506V263.376H251.85V273.232H268.426V282H240.906V237.072H268.426V245.84H251.85ZM307.851 237.072V245.84H295.947V282H285.003V245.84H273.099V237.072H307.851ZM345.663 237.072V245.84H333.759V282H322.815V245.84H310.911V237.072H345.663ZM362.1 245.84V254.928H376.756V263.376H362.1V273.232H378.676V282H351.156V237.072H378.676V245.84H362.1ZM408.693 282L399.349 265.04H396.725V282H385.781V237.072H404.149C407.69 237.072 410.698 237.691 413.173 238.928C415.69 240.165 417.567 241.872 418.805 244.048C420.042 246.181 420.661 248.571 420.661 251.216C420.661 254.203 419.807 256.869 418.101 259.216C416.437 261.563 413.962 263.227 410.677 264.208L421.045 282H408.693ZM396.725 257.296H403.509C405.514 257.296 407.007 256.805 407.989 255.824C409.013 254.843 409.525 253.456 409.525 251.664C409.525 249.957 409.013 248.613 407.989 247.632C407.007 246.651 405.514 246.16 403.509 246.16H396.725V257.296Z" fill="#F6F6F6"/>
<path d="M61.16 282V284H63.16V282H61.16ZM50.216 282L48.5472 283.102L49.1401 284H50.216V282ZM31.912 254.288L33.5808 253.186L29.912 247.631V254.288H31.912ZM31.912 282V284H33.912V282H31.912ZM20.968 282H18.968V284H20.968V282ZM20.968 237.072V235.072H18.968V237.072H20.968ZM31.912 237.072L33.5832 235.973L32.9906 235.072H31.912V237.072ZM50.216 264.912L48.5448 266.011L52.216 271.594V264.912H50.216ZM50.216 237.072V235.072H48.216V237.072H50.216ZM61.16 237.072H63.16V235.072H61.16V237.072ZM61.16 280H50.216V284H61.16V280ZM51.8848 280.898L33.5808 253.186L30.2432 255.39L48.5472 283.102L51.8848 280.898ZM29.912 254.288V282H33.912V254.288H29.912ZM31.912 280H20.968V284H31.912V280ZM22.968 282V237.072H18.968V282H22.968ZM20.968 239.072H31.912V235.072H20.968V239.072ZM30.2408 238.171L48.5448 266.011L51.8872 263.813L33.5832 235.973L30.2408 238.171ZM52.216 264.912V237.072H48.216V264.912H52.216ZM50.216 239.072H61.16V235.072H50.216V239.072ZM59.16 237.072V282H63.16V237.072H59.16ZM80.037 245.84V243.84H78.037V245.84H80.037ZM80.037 254.928H78.037V256.928H80.037V254.928ZM94.693 254.928H96.693V252.928H94.693V254.928ZM94.693 263.376V265.376H96.693V263.376H94.693ZM80.037 263.376V261.376H78.037V263.376H80.037ZM80.037 273.232H78.037V275.232H80.037V273.232ZM96.613 273.232H98.613V271.232H96.613V273.232ZM96.613 282V284H98.613V282H96.613ZM69.093 282H67.093V284H69.093V282ZM69.093 237.072V235.072H67.093V237.072H69.093ZM96.613 237.072H98.613V235.072H96.613V237.072ZM96.613 245.84V247.84H98.613V245.84H96.613ZM78.037 245.84V254.928H82.037V245.84H78.037ZM80.037 256.928H94.693V252.928H80.037V256.928ZM92.693 254.928V263.376H96.693V254.928H92.693ZM94.693 261.376H80.037V265.376H94.693V261.376ZM78.037 263.376V273.232H82.037V263.376H78.037ZM80.037 275.232H96.613V271.232H80.037V275.232ZM94.613 273.232V282H98.613V273.232H94.613ZM96.613 280H69.093V284H96.613V280ZM71.093 282V237.072H67.093V282H71.093ZM69.093 239.072H96.613V235.072H69.093V239.072ZM94.613 237.072V245.84H98.613V237.072H94.613ZM96.613 243.84H80.037V247.84H96.613V243.84ZM165.542 237.072L167.477 237.577L168.13 235.072H165.542V237.072ZM153.83 282V284H155.375L155.765 282.505L153.83 282ZM140.582 282L138.638 282.471L139.009 284H140.582V282ZM133.414 252.432L135.358 251.961L131.474 251.945L133.414 252.432ZM125.99 282V284H127.55L127.93 282.487L125.99 282ZM112.742 282L110.803 282.492L111.186 284H112.742V282ZM101.35 237.072V235.072H98.7796L99.4114 237.564L101.35 237.072ZM113.062 237.072L115.024 236.684L114.705 235.072H113.062V237.072ZM119.526 269.776L117.564 270.164L121.469 270.251L119.526 269.776ZM127.526 237.072V235.072H125.956L125.583 236.597L127.526 237.072ZM139.558 237.072L141.505 236.615L141.143 235.072H139.558V237.072ZM147.238 269.776L145.291 270.233L149.199 270.167L147.238 269.776ZM153.766 237.072V235.072H152.126L151.805 236.681L153.766 237.072ZM163.607 236.567L151.895 281.495L155.765 282.505L167.477 237.577L163.607 236.567ZM153.83 280H140.582V284H153.83V280ZM142.526 281.529L135.358 251.961L131.47 252.903L138.638 282.471L142.526 281.529ZM131.474 251.945L124.05 281.513L127.93 282.487L135.354 252.919L131.474 251.945ZM125.99 280H112.742V284H125.99V280ZM114.681 281.508L103.289 236.58L99.4114 237.564L110.803 282.492L114.681 281.508ZM101.35 239.072H113.062V235.072H101.35V239.072ZM111.1 237.46L117.564 270.164L121.488 269.388L115.024 236.684L111.1 237.46ZM121.469 270.251L129.469 237.547L125.583 236.597L117.583 269.301L121.469 270.251ZM127.526 239.072H139.558V235.072H127.526V239.072ZM137.611 237.529L145.291 270.233L149.185 269.319L141.505 236.615L137.611 237.529ZM149.199 270.167L155.727 237.463L151.805 236.681L145.277 269.385L149.199 270.167ZM153.766 239.072H165.542V235.072H153.766V239.072ZM178.455 280.848L177.696 282.699L177.696 282.699L178.455 280.848ZM172.183 276.112L170.571 277.296L170.579 277.307L170.586 277.317L172.183 276.112ZM169.751 268.56V266.56H167.692L167.751 268.618L169.751 268.56ZM181.399 268.56L183.388 268.356L183.204 266.56H181.399V268.56ZM183.127 272.4L181.778 273.877L181.796 273.893L181.814 273.909L183.127 272.4ZM190.807 272.592L192.029 274.175L192.051 274.158L192.073 274.14L190.807 272.592ZM191.063 266.704L189.648 268.118L189.668 268.138L189.689 268.158L191.063 266.704ZM188.311 264.912L187.505 266.743L187.518 266.748L187.531 266.754L188.311 264.912ZM183.703 263.312L183.112 265.223L183.122 265.226L183.132 265.229L183.703 263.312ZM176.599 260.624L175.721 262.421L176.599 260.624ZM171.863 256.656L173.458 255.45L173.458 255.45L171.863 256.656ZM174.423 240.016L175.647 241.597L175.654 241.592L175.661 241.586L174.423 240.016ZM198.231 240.016L196.992 241.586L196.999 241.592L197.006 241.597L198.231 240.016ZM203.095 249.872V251.872H205.198L205.092 249.771L203.095 249.872ZM191.255 249.872L189.258 249.989L189.369 251.872H191.255V249.872ZM189.655 246.48L188.342 247.989L188.361 248.006L188.381 248.022L189.655 246.48ZM182.679 246.288L183.967 247.818L183.99 247.798L184.012 247.778L182.679 246.288ZM183.51 252.688L184.532 250.968L184.532 250.968L183.51 252.688ZM189.911 255.312L190.551 253.417L190.539 253.413L190.526 253.409L189.911 255.312ZM196.951 258.128L196.056 259.917L196.064 259.921L196.073 259.925L196.951 258.128ZM201.687 262.032L200.106 263.257L200.106 263.257L201.687 262.032ZM201.687 275.6L199.996 274.531L199.988 274.543L199.981 274.556L201.687 275.6ZM196.055 280.592L195.16 278.803L195.16 278.803L196.055 280.592ZM187.287 280.448C184.218 280.448 181.538 279.95 179.213 278.997L177.696 282.699C180.576 283.879 183.784 284.448 187.287 284.448V280.448ZM179.213 278.997C176.917 278.056 175.125 276.69 173.779 274.907L170.586 277.317C172.397 279.715 174.787 281.506 177.696 282.699L179.213 278.997ZM173.794 274.928C172.53 273.208 171.825 271.097 171.75 268.502L167.751 268.618C167.847 271.911 168.763 274.835 170.571 277.296L173.794 274.928ZM169.751 270.56H181.399V266.56H169.751V270.56ZM179.409 268.764C179.616 270.786 180.347 272.571 181.778 273.877L184.475 270.923C183.943 270.437 183.522 269.662 183.388 268.356L179.409 268.764ZM181.814 273.909C183.233 275.143 185.013 275.68 186.967 275.68V271.68C185.762 271.68 184.982 271.363 184.439 270.891L181.814 273.909ZM186.967 275.68C188.87 275.68 190.632 275.254 192.029 274.175L189.584 271.009C189.104 271.38 188.306 271.68 186.967 271.68V275.68ZM192.073 274.14C193.522 272.955 194.215 271.317 194.215 269.456H190.215C190.215 270.241 189.969 270.693 189.54 271.044L192.073 274.14ZM194.215 269.456C194.215 267.827 193.626 266.374 192.436 265.25L189.689 268.158C190.035 268.485 190.215 268.866 190.215 269.456H194.215ZM192.477 265.29C191.54 264.354 190.396 263.623 189.09 263.07L187.531 266.754C188.444 267.14 189.134 267.604 189.648 268.118L192.477 265.29ZM189.116 263.081C187.936 262.562 186.307 262.001 184.273 261.395L183.132 265.229C185.109 265.818 186.552 266.323 187.505 266.743L189.116 263.081ZM184.293 261.401C181.447 260.522 179.185 259.661 177.476 258.827L175.721 262.421C177.681 263.379 180.155 264.31 183.112 265.223L184.293 261.401ZM177.476 258.827C175.944 258.079 174.605 256.968 173.458 255.45L170.267 257.862C171.765 259.843 173.583 261.377 175.721 262.421L177.476 258.827ZM173.458 255.45C172.464 254.135 171.879 252.313 171.879 249.808H167.879C167.879 252.935 168.616 255.678 170.267 257.862L173.458 255.45ZM171.879 249.808C171.879 246.18 173.156 243.527 175.647 241.597L173.198 238.435C169.63 241.198 167.879 245.073 167.879 249.808H171.879ZM175.661 241.586C178.254 239.541 181.729 238.432 186.263 238.432V234.432C181.068 234.432 176.65 235.712 173.184 238.446L175.661 241.586ZM186.263 238.432C190.891 238.432 194.405 239.546 196.992 241.586L199.469 238.446C195.998 235.708 191.533 234.432 186.263 234.432V238.432ZM197.006 241.597C199.523 243.547 200.91 246.263 201.097 249.973L205.092 249.771C204.853 245.033 202.997 241.178 199.455 238.435L197.006 241.597ZM203.095 247.872H191.255V251.872H203.095V247.872ZM193.251 249.755C193.138 247.836 192.4 246.154 190.928 244.938L188.381 248.022C188.871 248.427 189.2 249.007 189.258 249.989L193.251 249.755ZM190.967 244.971C189.558 243.745 187.805 243.2 185.878 243.2V247.2C187.024 247.2 187.789 247.508 188.342 247.989L190.967 244.971ZM185.878 243.2C184.175 243.2 182.598 243.677 181.345 244.798L184.012 247.778C184.381 247.449 184.937 247.2 185.878 247.2V243.2ZM181.39 244.758C180.019 245.913 179.463 247.542 179.463 249.296H183.463C183.463 248.404 183.716 248.029 183.967 247.818L181.39 244.758ZM179.463 249.296C179.463 251.53 180.587 253.278 182.489 254.408L184.532 250.968C183.704 250.477 183.463 249.964 183.463 249.296H179.463ZM182.489 254.408C184.051 255.335 186.356 256.264 189.295 257.215L190.526 253.409C187.662 252.483 185.7 251.662 184.532 250.968L182.489 254.408ZM189.27 257.207C192.124 258.172 194.377 259.077 196.056 259.917L197.845 256.339C195.94 255.387 193.499 254.415 190.551 253.417L189.27 257.207ZM196.073 259.925C197.617 260.679 198.959 261.778 200.106 263.257L203.267 260.807C201.768 258.872 199.954 257.369 197.828 256.331L196.073 259.925ZM200.106 263.257C201.096 264.535 201.671 266.269 201.671 268.624H205.671C205.671 265.603 204.923 262.943 203.267 260.807L200.106 263.257ZM201.671 268.624C201.671 270.819 201.109 272.771 199.996 274.531L203.377 276.669C204.909 274.247 205.671 271.549 205.671 268.624H201.671ZM199.981 274.556C198.921 276.287 197.344 277.711 195.16 278.803L196.949 282.381C199.714 280.998 201.892 279.094 203.392 276.644L199.981 274.556ZM195.16 278.803C193.017 279.875 190.413 280.448 187.287 280.448V284.448C190.901 284.448 194.142 283.784 196.949 282.381L195.16 278.803ZM221.35 273.552H219.35V275.552H221.35V273.552ZM235.686 273.552H237.686V271.552H235.686V273.552ZM235.686 282V284H237.686V282H235.686ZM210.406 282H208.406V284H210.406V282ZM210.406 237.072V235.072H208.406V237.072H210.406ZM221.35 237.072H223.35V235.072H221.35V237.072ZM221.35 275.552H235.686V271.552H221.35V275.552ZM233.686 273.552V282H237.686V273.552H233.686ZM235.686 280H210.406V284H235.686V280ZM212.406 282V237.072H208.406V282H212.406ZM210.406 239.072H221.35V235.072H210.406V239.072ZM219.35 237.072V273.552H223.35V237.072H219.35ZM251.85 245.84V243.84H249.85V245.84H251.85ZM251.85 254.928H249.85V256.928H251.85V254.928ZM266.506 254.928H268.506V252.928H266.506V254.928ZM266.506 263.376V265.376H268.506V263.376H266.506ZM251.85 263.376V261.376H249.85V263.376H251.85ZM251.85 273.232H249.85V275.232H251.85V273.232ZM268.426 273.232H270.426V271.232H268.426V273.232ZM268.426 282V284H270.426V282H268.426ZM240.906 282H238.906V284H240.906V282ZM240.906 237.072V235.072H238.906V237.072H240.906ZM268.426 237.072H270.426V235.072H268.426V237.072ZM268.426 245.84V247.84H270.426V245.84H268.426ZM249.85 245.84V254.928H253.85V245.84H249.85ZM251.85 256.928H266.506V252.928H251.85V256.928ZM264.506 254.928V263.376H268.506V254.928H264.506ZM266.506 261.376H251.85V265.376H266.506V261.376ZM249.85 263.376V273.232H253.85V263.376H249.85ZM251.85 275.232H268.426V271.232H251.85V275.232ZM266.426 273.232V282H270.426V273.232H266.426ZM268.426 280H240.906V284H268.426V280ZM242.906 282V237.072H238.906V282H242.906ZM240.906 239.072H268.426V235.072H240.906V239.072ZM266.426 237.072V245.84H270.426V237.072H266.426ZM268.426 243.84H251.85V247.84H268.426V243.84ZM307.851 237.072H309.851V235.072H307.851V237.072ZM307.851 245.84V247.84H309.851V245.84H307.851ZM295.947 245.84V243.84H293.947V245.84H295.947ZM295.947 282V284H297.947V282H295.947ZM285.003 282H283.003V284H285.003V282ZM285.003 245.84H287.003V243.84H285.003V245.84ZM273.099 245.84H271.099V247.84H273.099V245.84ZM273.099 237.072V235.072H271.099V237.072H273.099ZM305.851 237.072V245.84H309.851V237.072H305.851ZM307.851 243.84H295.947V247.84H307.851V243.84ZM293.947 245.84V282H297.947V245.84H293.947ZM295.947 280H285.003V284H295.947V280ZM287.003 282V245.84H283.003V282H287.003ZM285.003 243.84H273.099V247.84H285.003V243.84ZM275.099 245.84V237.072H271.099V245.84H275.099ZM273.099 239.072H307.851V235.072H273.099V239.072ZM345.663 237.072H347.663V235.072H345.663V237.072ZM345.663 245.84V247.84H347.663V245.84H345.663ZM333.759 245.84V243.84H331.759V245.84H333.759ZM333.759 282V284H335.759V282H333.759ZM322.815 282H320.815V284H322.815V282ZM322.815 245.84H324.815V243.84H322.815V245.84ZM310.911 245.84H308.911V247.84H310.911V245.84ZM310.911 237.072V235.072H308.911V237.072H310.911ZM343.663 237.072V245.84H347.663V237.072H343.663ZM345.663 243.84H333.759V247.84H345.663V243.84ZM331.759 245.84V282H335.759V245.84H331.759ZM333.759 280H322.815V284H333.759V280ZM324.815 282V245.84H320.815V282H324.815ZM322.815 243.84H310.911V247.84H322.815V243.84ZM312.911 245.84V237.072H308.911V245.84H312.911ZM310.911 239.072H345.663V235.072H310.911V239.072ZM362.1 245.84V243.84H360.1V245.84H362.1ZM362.1 254.928H360.1V256.928H362.1V254.928ZM376.756 254.928H378.756V252.928H376.756V254.928ZM376.756 263.376V265.376H378.756V263.376H376.756ZM362.1 263.376V261.376H360.1V263.376H362.1ZM362.1 273.232H360.1V275.232H362.1V273.232ZM378.676 273.232H380.676V271.232H378.676V273.232ZM378.676 282V284H380.676V282H378.676ZM351.156 282H349.156V284H351.156V282ZM351.156 237.072V235.072H349.156V237.072H351.156ZM378.676 237.072H380.676V235.072H378.676V237.072ZM378.676 245.84V247.84H380.676V245.84H378.676ZM360.1 245.84V254.928H364.1V245.84H360.1ZM362.1 256.928H376.756V252.928H362.1V256.928ZM374.756 254.928V263.376H378.756V254.928H374.756ZM376.756 261.376H362.1V265.376H376.756V261.376ZM360.1 263.376V273.232H364.1V263.376H360.1ZM362.1 275.232H378.676V271.232H362.1V275.232ZM376.676 273.232V282H380.676V273.232H376.676ZM378.676 280H351.156V284H378.676V280ZM353.156 282V237.072H349.156V282H353.156ZM351.156 239.072H378.676V235.072H351.156V239.072ZM376.676 237.072V245.84H380.676V237.072H376.676ZM378.676 243.84H362.1V247.84H378.676V243.84ZM408.693 282L406.941 282.965L407.511 284H408.693V282ZM399.349 265.04L401.1 264.075L400.53 263.04H399.349V265.04ZM396.725 265.04V263.04H394.725V265.04H396.725ZM396.725 282V284H398.725V282H396.725ZM385.781 282H383.781V284H385.781V282ZM385.781 237.072V235.072H383.781V237.072H385.781ZM413.173 238.928L412.278 240.717L412.29 240.723L413.173 238.928ZM418.805 244.048L417.066 245.037L417.07 245.044L417.074 245.051L418.805 244.048ZM418.101 259.216L416.483 258.04L416.476 258.049L416.469 258.059L418.101 259.216ZM410.677 264.208L410.104 262.292L407.669 263.019L408.948 265.215L410.677 264.208ZM421.045 282V284H424.525L422.773 280.993L421.045 282ZM396.725 257.296H394.725V259.296H396.725V257.296ZM407.989 255.824L406.605 254.38L406.589 254.395L406.574 254.41L407.989 255.824ZM407.989 247.632L406.574 249.046L406.589 249.061L406.605 249.076L407.989 247.632ZM396.725 246.16V244.16H394.725V246.16H396.725ZM410.444 281.035L401.1 264.075L397.597 266.005L406.941 282.965L410.444 281.035ZM399.349 263.04H396.725V267.04H399.349V263.04ZM394.725 265.04V282H398.725V265.04H394.725ZM396.725 280H385.781V284H396.725V280ZM387.781 282V237.072H383.781V282H387.781ZM385.781 239.072H404.149V235.072H385.781V239.072ZM404.149 239.072C407.464 239.072 410.148 239.652 412.278 240.717L414.067 237.139C411.248 235.73 407.916 235.072 404.149 235.072V239.072ZM412.29 240.723C414.493 241.806 416.05 243.25 417.066 245.037L420.543 243.059C419.084 240.494 416.887 238.525 414.055 237.133L412.29 240.723ZM417.074 245.051C418.122 246.858 418.661 248.897 418.661 251.216H422.661C422.661 248.245 421.962 245.505 420.535 243.045L417.074 245.051ZM418.661 251.216C418.661 253.793 417.933 256.045 416.483 258.04L419.718 260.392C421.681 257.693 422.661 254.612 422.661 251.216H418.661ZM416.469 258.059C415.11 259.975 413.047 261.413 410.104 262.292L411.249 266.124C414.877 265.041 417.763 263.15 419.732 260.373L416.469 258.059ZM408.948 265.215L419.316 283.007L422.773 280.993L412.405 263.201L408.948 265.215ZM421.045 280H408.693V284H421.045V280ZM396.725 259.296H403.509V255.296H396.725V259.296ZM403.509 259.296C405.808 259.296 407.907 258.734 409.403 257.238L406.574 254.41C406.108 254.877 405.22 255.296 403.509 255.296V259.296ZM409.372 257.268C410.888 255.816 411.525 253.849 411.525 251.664H407.525C407.525 253.063 407.137 253.87 406.605 254.38L409.372 257.268ZM411.525 251.664C411.525 249.531 410.868 247.622 409.372 246.188L406.605 249.076C407.157 249.605 407.525 250.383 407.525 251.664H411.525ZM409.403 246.218C407.907 244.722 405.808 244.16 403.509 244.16V248.16C405.22 248.16 406.108 248.579 406.574 249.046L409.403 246.218ZM403.509 244.16H396.725V248.16H403.509V244.16ZM394.725 246.16V257.296H398.725V246.16H394.725Z" fill="#274060" mask="url(#path-2-outside-1_258_621)"/>
<path d="M30.1987 179.251C30.2279 178.643 30.4591 178.071 30.8448 177.652C31.2305 177.233 31.7414 177 32.2725 177H38.7275C39.2586 177 39.7695 177.233 40.1552 177.652C40.5409 178.071 40.7721 178.643 40.8013 179.251L41.6093 195.926C41.6248 196.249 41.5827 196.573 41.4855 196.877C41.3883 197.181 41.238 197.459 41.0439 197.695C40.8498 197.93 40.616 198.117 40.3566 198.245C40.0972 198.373 39.8178 198.439 39.5355 198.439H31.4645C31.1822 198.439 30.9028 198.373 30.6434 198.245C30.384 198.117 30.1502 197.93 29.9561 197.695C29.762 197.459 29.6117 197.181 29.5145 196.877C29.4173 196.573 29.3752 196.249 29.3907 195.926L30.1987 179.251ZM22 205.586C22 203.69 22.6565 201.873 23.825 200.532C24.9934 199.192 26.5783 198.439 28.2308 198.439H42.7692C44.4217 198.439 46.0066 199.192 47.1751 200.532C48.3435 201.873 49 203.69 49 205.586V221.069C49 222.017 48.6718 222.926 48.0875 223.596C47.5033 224.266 46.7109 224.643 45.8846 224.643H25.1154C24.2891 224.643 23.4967 224.266 22.9125 223.596C22.3282 222.926 22 222.017 22 221.069V205.586Z" stroke="black" stroke-width="2"/>
<path d="M35.5002 216.27C37.7369 216.27 39.5502 214.386 39.5502 212.062C39.5502 209.739 37.7369 207.855 35.5002 207.855C33.2634 207.855 31.4502 209.739 31.4502 212.062C31.4502 214.386 33.2634 216.27 35.5002 216.27Z" fill="#274060"/>
</svg>
