<svg width="450" height="450" viewBox="0 0 450 450" fill="none" xmlns="http://www.w3.org/2000/svg">
<rect width="450" height="450" fill="#1A1A40"/>
<path d="M162 138.312C148.211 138.312 137 149.355 137 162.938V286.062C137 299.645 148.211 310.688 162 310.688H287C300.789 310.688 312 299.645 312 286.062V162.938C312 149.355 300.789 138.312 287 138.312H162ZM268.641 206.416L218.641 255.666C214.969 259.283 209.031 259.283 205.398 255.666L180.398 231.041C176.727 227.424 176.727 221.576 180.398 217.997C184.07 214.419 190.008 214.381 193.641 217.997L212 236.081L255.359 193.334C259.031 189.717 264.969 189.717 268.602 193.334C272.234 196.951 272.273 202.799 268.602 206.378L268.641 206.416Z" fill="#FB6F93"/>
</svg>
